<mxfile host="app.diagrams.net" modified="2020-06-09T09:16:10.932Z" agent="5.0 (Macintosh; Intel Mac OS X 10_15_4) AppleWebKit/537.36 (KHTML, like Gecko) Chrome/83.0.4103.61 Safari/537.36" etag="Kn1o-2G6lTkb3Kaarj8C" version="13.1.14" type="github">
  <diagram name="Page-1" id="13e1069c-82ec-6db2-03f1-153e76fe0fe0">
    <mxGraphModel dx="946" dy="591" grid="1" gridSize="10" guides="1" tooltips="1" connect="1" arrows="1" fold="1" page="1" pageScale="1" pageWidth="1100" pageHeight="850" background="#ffffff" math="0" shadow="0">
      <root>
        <mxCell id="0" />
        <mxCell id="1" parent="0" />
        <mxCell id="7baba1c4bc27f4b0-2" value="收款机" style="shape=umlLifeline;perimeter=lifelinePerimeter;whiteSpace=wrap;html=1;container=1;collapsible=0;recursiveResize=0;outlineConnect=0;rounded=1;shadow=0;comic=0;labelBackgroundColor=none;strokeWidth=1;fontFamily=Verdana;fontSize=12;align=center;" parent="1" vertex="1">
          <mxGeometry x="240" y="80" width="100" height="680" as="geometry" />
        </mxCell>
        <mxCell id="7baba1c4bc27f4b0-10" value="" style="html=1;points=[];perimeter=orthogonalPerimeter;rounded=0;shadow=0;comic=0;labelBackgroundColor=none;strokeWidth=1;fontFamily=Verdana;fontSize=12;align=center;" parent="7baba1c4bc27f4b0-2" vertex="1">
          <mxGeometry x="45" y="100" width="10" height="150" as="geometry" />
        </mxCell>
        <mxCell id="-WdYJ7NibBkJyXMjQVF8-6" value="" style="html=1;points=[];perimeter=orthogonalPerimeter;" vertex="1" parent="7baba1c4bc27f4b0-2">
          <mxGeometry x="45" y="280" width="10" height="160" as="geometry" />
        </mxCell>
        <mxCell id="7baba1c4bc27f4b0-3" value="交易系统" style="shape=umlLifeline;perimeter=lifelinePerimeter;whiteSpace=wrap;html=1;container=1;collapsible=0;recursiveResize=0;outlineConnect=0;rounded=1;shadow=0;comic=0;labelBackgroundColor=none;strokeWidth=1;fontFamily=Verdana;fontSize=12;align=center;" parent="1" vertex="1">
          <mxGeometry x="400" y="80" width="100" height="680" as="geometry" />
        </mxCell>
        <mxCell id="7baba1c4bc27f4b0-13" value="" style="html=1;points=[];perimeter=orthogonalPerimeter;rounded=0;shadow=0;comic=0;labelBackgroundColor=none;strokeWidth=1;fontFamily=Verdana;fontSize=12;align=center;" parent="7baba1c4bc27f4b0-3" vertex="1">
          <mxGeometry x="45" y="120" width="10" height="70" as="geometry" />
        </mxCell>
        <mxCell id="-WdYJ7NibBkJyXMjQVF8-7" value="" style="html=1;points=[];perimeter=orthogonalPerimeter;" vertex="1" parent="7baba1c4bc27f4b0-3">
          <mxGeometry x="45" y="280" width="10" height="80" as="geometry" />
        </mxCell>
        <mxCell id="7baba1c4bc27f4b0-4" value="打印机" style="shape=umlLifeline;perimeter=lifelinePerimeter;whiteSpace=wrap;html=1;container=1;collapsible=0;recursiveResize=0;outlineConnect=0;rounded=1;shadow=0;comic=0;labelBackgroundColor=none;strokeWidth=1;fontFamily=Verdana;fontSize=12;align=center;" parent="1" vertex="1">
          <mxGeometry x="660" y="80" width="100" height="680" as="geometry" />
        </mxCell>
        <mxCell id="-WdYJ7NibBkJyXMjQVF8-24" value="" style="html=1;points=[];perimeter=orthogonalPerimeter;" vertex="1" parent="7baba1c4bc27f4b0-4">
          <mxGeometry x="45" y="620" width="10" height="50" as="geometry" />
        </mxCell>
        <mxCell id="7baba1c4bc27f4b0-8" value="操作人" style="shape=umlLifeline;perimeter=lifelinePerimeter;whiteSpace=wrap;html=1;container=1;collapsible=0;recursiveResize=0;outlineConnect=0;rounded=1;shadow=0;comic=0;labelBackgroundColor=none;strokeWidth=1;fontFamily=Verdana;fontSize=12;align=center;" parent="1" vertex="1">
          <mxGeometry x="100" y="80" width="100" height="680" as="geometry" />
        </mxCell>
        <mxCell id="7baba1c4bc27f4b0-9" value="" style="html=1;points=[];perimeter=orthogonalPerimeter;rounded=0;shadow=0;comic=0;labelBackgroundColor=none;strokeWidth=1;fontFamily=Verdana;fontSize=12;align=center;" parent="7baba1c4bc27f4b0-8" vertex="1">
          <mxGeometry x="45" y="100" width="10" height="580" as="geometry" />
        </mxCell>
        <mxCell id="-WdYJ7NibBkJyXMjQVF8-27" value="打印" style="html=1;verticalAlign=bottom;endArrow=block;" edge="1" parent="7baba1c4bc27f4b0-8" source="7baba1c4bc27f4b0-9">
          <mxGeometry width="80" relative="1" as="geometry">
            <mxPoint x="60" y="650" as="sourcePoint" />
            <mxPoint x="610" y="650" as="targetPoint" />
          </mxGeometry>
        </mxCell>
        <mxCell id="7baba1c4bc27f4b0-23" value="输入扣款金额" style="html=1;verticalAlign=bottom;endArrow=block;labelBackgroundColor=none;fontFamily=Verdana;fontSize=12;" parent="1" source="7baba1c4bc27f4b0-9" target="7baba1c4bc27f4b0-2" edge="1">
          <mxGeometry relative="1" as="geometry">
            <mxPoint x="510" y="420" as="sourcePoint" />
            <mxPoint x="270" y="370" as="targetPoint" />
            <Array as="points">
              <mxPoint x="200" y="370" />
            </Array>
          </mxGeometry>
        </mxCell>
        <mxCell id="7baba1c4bc27f4b0-11" value="插卡" style="html=1;verticalAlign=bottom;endArrow=block;entryX=0;entryY=0;labelBackgroundColor=none;fontFamily=Verdana;fontSize=12;edgeStyle=elbowEdgeStyle;elbow=vertical;" parent="1" source="7baba1c4bc27f4b0-9" target="7baba1c4bc27f4b0-10" edge="1">
          <mxGeometry relative="1" as="geometry">
            <mxPoint x="220" y="190" as="sourcePoint" />
          </mxGeometry>
        </mxCell>
        <mxCell id="7baba1c4bc27f4b0-14" value="查询余额" style="html=1;verticalAlign=bottom;endArrow=block;entryX=0;entryY=0;labelBackgroundColor=none;fontFamily=Verdana;fontSize=12;edgeStyle=elbowEdgeStyle;elbow=vertical;" parent="1" source="7baba1c4bc27f4b0-10" target="7baba1c4bc27f4b0-13" edge="1">
          <mxGeometry relative="1" as="geometry">
            <mxPoint x="370" y="200" as="sourcePoint" />
          </mxGeometry>
        </mxCell>
        <mxCell id="-WdYJ7NibBkJyXMjQVF8-4" value="return" style="html=1;verticalAlign=bottom;endArrow=open;dashed=1;endSize=8;labelBackgroundColor=none;fontFamily=Verdana;fontSize=12;edgeStyle=elbowEdgeStyle;elbow=vertical;entryX=1;entryY=0.533;entryDx=0;entryDy=0;entryPerimeter=0;" edge="1" parent="1" target="7baba1c4bc27f4b0-10">
          <mxGeometry relative="1" as="geometry">
            <mxPoint x="300" y="260" as="targetPoint" />
            <Array as="points">
              <mxPoint x="385" y="260" />
              <mxPoint x="415" y="260" />
            </Array>
            <mxPoint x="440" y="260" as="sourcePoint" />
          </mxGeometry>
        </mxCell>
        <mxCell id="-WdYJ7NibBkJyXMjQVF8-5" value="显示余额" style="html=1;verticalAlign=bottom;endArrow=block;labelBackgroundColor=none;fontFamily=Verdana;fontSize=12;elbow=vertical;edgeStyle=orthogonalEdgeStyle;curved=1;exitX=1.038;exitY=0.345;exitPerimeter=0;" edge="1" parent="1" target="7baba1c4bc27f4b0-10">
          <mxGeometry relative="1" as="geometry">
            <mxPoint x="300.0000000000001" y="280" as="sourcePoint" />
            <mxPoint x="304.62" y="317.91999999999996" as="targetPoint" />
            <Array as="points">
              <mxPoint x="355" y="280" />
              <mxPoint x="355" y="318" />
            </Array>
          </mxGeometry>
        </mxCell>
        <mxCell id="-WdYJ7NibBkJyXMjQVF8-8" value="扣款" style="html=1;verticalAlign=bottom;endArrow=block;labelBackgroundColor=none;fontFamily=Verdana;fontSize=12;entryX=0.5;entryY=0.238;entryDx=0;entryDy=0;entryPerimeter=0;" edge="1" parent="1" source="7baba1c4bc27f4b0-2" target="-WdYJ7NibBkJyXMjQVF8-7">
          <mxGeometry relative="1" as="geometry">
            <mxPoint x="310" y="379" as="sourcePoint" />
            <mxPoint x="424.5" y="380" as="targetPoint" />
            <Array as="points">
              <mxPoint x="335" y="380" />
            </Array>
          </mxGeometry>
        </mxCell>
        <mxCell id="-WdYJ7NibBkJyXMjQVF8-9" value="return" style="html=1;verticalAlign=bottom;endArrow=open;dashed=1;endSize=8;labelBackgroundColor=none;fontFamily=Verdana;fontSize=12;edgeStyle=elbowEdgeStyle;elbow=vertical;entryX=1;entryY=0.533;entryDx=0;entryDy=0;entryPerimeter=0;" edge="1" parent="1">
          <mxGeometry relative="1" as="geometry">
            <mxPoint x="300" y="410.00000000000006" as="targetPoint" />
            <Array as="points">
              <mxPoint x="390" y="410.05" />
              <mxPoint x="420" y="410.05" />
            </Array>
            <mxPoint x="445" y="410.05" as="sourcePoint" />
          </mxGeometry>
        </mxCell>
        <mxCell id="-WdYJ7NibBkJyXMjQVF8-11" value="计算余额" style="html=1;verticalAlign=bottom;endArrow=block;labelBackgroundColor=none;fontFamily=Verdana;fontSize=12;elbow=vertical;edgeStyle=orthogonalEdgeStyle;curved=1;exitX=1.038;exitY=0.345;exitPerimeter=0;" edge="1" parent="1">
          <mxGeometry relative="1" as="geometry">
            <mxPoint x="295" y="430" as="sourcePoint" />
            <mxPoint x="290" y="468" as="targetPoint" />
            <Array as="points">
              <mxPoint x="350" y="430" />
              <mxPoint x="350" y="468" />
            </Array>
          </mxGeometry>
        </mxCell>
        <mxCell id="-WdYJ7NibBkJyXMjQVF8-12" value="显示余额和交易额" style="html=1;verticalAlign=bottom;endArrow=block;labelBackgroundColor=none;fontFamily=Verdana;fontSize=12;elbow=vertical;edgeStyle=orthogonalEdgeStyle;curved=1;exitX=1.038;exitY=0.345;exitPerimeter=0;" edge="1" parent="1">
          <mxGeometry relative="1" as="geometry">
            <mxPoint x="295" y="480" as="sourcePoint" />
            <mxPoint x="295" y="518" as="targetPoint" />
            <Array as="points">
              <mxPoint x="350" y="480" />
              <mxPoint x="350" y="518" />
            </Array>
          </mxGeometry>
        </mxCell>
        <mxCell id="-WdYJ7NibBkJyXMjQVF8-18" value="return" style="html=1;verticalAlign=bottom;endArrow=open;dashed=1;endSize=8;entryX=1.2;entryY=0.716;entryDx=0;entryDy=0;entryPerimeter=0;" edge="1" parent="1" source="-WdYJ7NibBkJyXMjQVF8-28" target="7baba1c4bc27f4b0-9">
          <mxGeometry relative="1" as="geometry">
            <mxPoint x="446" y="595" as="sourcePoint" />
            <mxPoint x="155" y="600" as="targetPoint" />
          </mxGeometry>
        </mxCell>
        <mxCell id="-WdYJ7NibBkJyXMjQVF8-20" value="查询交易统计" style="html=1;verticalAlign=bottom;endArrow=block;entryX=0.1;entryY=0.238;entryDx=0;entryDy=0;entryPerimeter=0;" edge="1" parent="1" target="-WdYJ7NibBkJyXMjQVF8-21" source="7baba1c4bc27f4b0-8">
          <mxGeometry width="80" relative="1" as="geometry">
            <mxPoint x="290" y="667" as="sourcePoint" />
            <mxPoint x="130" y="590" as="targetPoint" />
          </mxGeometry>
        </mxCell>
        <mxCell id="-WdYJ7NibBkJyXMjQVF8-23" value="return" style="html=1;verticalAlign=bottom;endArrow=open;dashed=1;endSize=8;exitX=0.1;exitY=0.7;exitDx=0;exitDy=0;exitPerimeter=0;" edge="1" parent="1" source="-WdYJ7NibBkJyXMjQVF8-21">
          <mxGeometry relative="1" as="geometry">
            <mxPoint x="440" y="700" as="sourcePoint" />
            <mxPoint x="150" y="689" as="targetPoint" />
          </mxGeometry>
        </mxCell>
        <mxCell id="-WdYJ7NibBkJyXMjQVF8-17" value="查询交易记录" style="html=1;verticalAlign=bottom;endArrow=block;entryX=0.1;entryY=0.238;entryDx=0;entryDy=0;entryPerimeter=0;" edge="1" parent="1" target="-WdYJ7NibBkJyXMjQVF8-16">
          <mxGeometry width="80" relative="1" as="geometry">
            <mxPoint x="160" y="567" as="sourcePoint" />
            <mxPoint x="370" y="570" as="targetPoint" />
            <Array as="points" />
          </mxGeometry>
        </mxCell>
        <mxCell id="-WdYJ7NibBkJyXMjQVF8-28" value="统计分析系统" style="shape=umlLifeline;perimeter=lifelinePerimeter;whiteSpace=wrap;html=1;container=1;collapsible=0;recursiveResize=0;outlineConnect=0;rounded=1;shadow=0;comic=0;labelBackgroundColor=none;strokeWidth=1;fontFamily=Verdana;fontSize=12;align=center;" vertex="1" parent="1">
          <mxGeometry x="530" y="80" width="100" height="680" as="geometry" />
        </mxCell>
        <mxCell id="-WdYJ7NibBkJyXMjQVF8-16" value="" style="html=1;points=[];perimeter=orthogonalPerimeter;" vertex="1" parent="-WdYJ7NibBkJyXMjQVF8-28">
          <mxGeometry x="45" y="470" width="10" height="70" as="geometry" />
        </mxCell>
        <mxCell id="-WdYJ7NibBkJyXMjQVF8-21" value="" style="html=1;points=[];perimeter=orthogonalPerimeter;" vertex="1" parent="-WdYJ7NibBkJyXMjQVF8-28">
          <mxGeometry x="45" y="560" width="10" height="70" as="geometry" />
        </mxCell>
      </root>
    </mxGraphModel>
  </diagram>
</mxfile>
